<svg width="24" height="24" viewBox="0 0 24 24" fill="none" xmlns="http://www.w3.org/2000/svg">
<path fill-rule="evenodd" clip-rule="evenodd" d="M14.2124 7.76253C14.2124 10.4063 12.0489 12.5249 9.34933 12.5249C6.6507 12.5249 4.48631 10.4063 4.48631 7.76253C4.48631 5.11877 6.6507 3.00012 9.34933 3.00012C12.0489 3.00012 14.2124 5.11877 14.2124 7.76253ZM2 17.9175C2 15.4702 5.38553 14.8579 9.34933 14.8579C13.3347 14.8579 16.6987 15.4912 16.6987 17.9405C16.6987 20.3878 13.3131 21.0001 9.34933 21.0001C5.364 21.0001 2 20.3667 2 17.9175ZM16.1734 7.84887C16.1734 9.19519 15.7605 10.4514 15.0364 11.4949C14.9611 11.6023 15.0276 11.747 15.1587 11.77C15.3407 11.7997 15.5276 11.8179 15.7184 11.8217C17.6167 11.8706 19.3202 10.6737 19.7908 8.8713C20.4885 6.19688 18.4415 3.79555 15.8339 3.79555C15.5511 3.79555 15.2801 3.8243 15.0159 3.877C14.9797 3.88467 14.9405 3.90191 14.921 3.93258C14.8955 3.97186 14.9141 4.02265 14.9396 4.05619C15.7233 5.13228 16.1734 6.44219 16.1734 7.84887ZM19.3173 13.7024C20.5932 13.9468 21.4317 14.4441 21.7791 15.1695C22.0736 15.7636 22.0736 16.4535 21.7791 17.0476C21.2478 18.1707 19.5335 18.5319 18.8672 18.6249C18.7292 18.644 18.6186 18.529 18.6333 18.393C18.9738 15.2806 16.2664 13.805 15.5658 13.4657C15.5364 13.4494 15.5296 13.4264 15.5325 13.4111C15.5345 13.4015 15.5472 13.3862 15.5697 13.3833C17.0854 13.3546 18.7155 13.5587 19.3173 13.7024Z" fill="white"/>
</svg>
