<svg width="22" height="22" viewBox="0 0 22 22" fill="none" xmlns="http://www.w3.org/2000/svg">
<path fill-rule="evenodd" clip-rule="evenodd" d="M19.25 5.5H2.75V8.25C3.76252 8.25 4.58333 9.07081 4.58333 10.0833V13.25C4.58333 16.0784 4.58333 17.4926 5.46201 18.3713C6.34069 19.25 7.75491 19.25 10.5833 19.25H11.4167C14.2451 19.25 15.6593 19.25 16.538 18.3713C17.4167 17.4926 17.4167 16.0784 17.4167 13.25V10.0833C17.4167 9.07081 18.2375 8.25 19.25 8.25V5.5ZM9.70833 10.0833C9.70833 9.53105 9.26062 9.08333 8.70833 9.08333C8.15605 9.08333 7.70833 9.53105 7.70833 10.0833V14.6667C7.70833 15.219 8.15605 15.6667 8.70833 15.6667C9.26062 15.6667 9.70833 15.219 9.70833 14.6667V10.0833ZM14.2917 10.0833C14.2917 9.53105 13.844 9.08333 13.2917 9.08333C12.7394 9.08333 12.2917 9.53105 12.2917 10.0833V14.6667C12.2917 15.219 12.7394 15.6667 13.2917 15.6667C13.844 15.6667 14.2917 15.219 14.2917 14.6667V10.0833Z" fill="white"/>
<path d="M9.2293 3.08971C9.33375 2.99225 9.56392 2.90613 9.8841 2.84471C10.2043 2.78329 10.5966 2.75 11.0002 2.75C11.4037 2.75 11.796 2.78329 12.1162 2.84471C12.4364 2.90613 12.6666 2.99225 12.771 3.08971" stroke="white" stroke-width="2" stroke-linecap="round"/>
</svg>
