<svg width="25" height="25" viewBox="0 0 25 25" fill="none" xmlns="http://www.w3.org/2000/svg">
<path fill-rule="evenodd" clip-rule="evenodd" d="M19.349 10.2017C19.349 9.92572 19.125 9.70172 18.849 9.70172H5.65304C5.37604 9.70172 5.15304 9.92572 5.15304 10.2017C5.15304 11.1987 5.13504 12.1277 5.11804 12.9887C5.04404 16.7377 4.99504 19.2147 6.51004 20.7597C7.58604 21.8567 9.35304 22.3467 12.24 22.3467C15.13 22.3467 16.9 21.8557 17.979 20.7567C19.501 19.2047 19.453 16.7157 19.382 12.9457C19.366 12.0967 19.349 11.1817 19.349 10.2017Z" fill="black"/>
<path fill-rule="evenodd" clip-rule="evenodd" d="M20.325 6.37851H16.184C16.143 5.72451 15.962 4.80251 15.311 4.05451C14.623 3.26351 13.593 2.86151 12.249 2.86151C10.906 2.86151 9.87605 3.26351 9.18805 4.05451C8.53705 4.80251 8.35505 5.72451 8.31405 6.37851H4.17505C3.76105 6.37851 3.42505 6.71451 3.42505 7.12851C3.42505 7.54251 3.76105 7.87851 4.17505 7.87851H20.325C20.739 7.87851 21.075 7.54251 21.075 7.12851C21.075 6.71451 20.739 6.37851 20.325 6.37851Z" fill="black"/>
</svg>
